<?xml version="1.0" encoding="UTF-8" standalone="no"?>
<!DOCTYPE svg PUBLIC "-//W3C//DTD SVG 1.1//EN"
 "http://www.w3.org/Graphics/SVG/1.1/DTD/svg11.dtd">
<!-- Generated by graphviz version 2.38.0 (20140413.2041)
 -->
<!-- Title: Tree Pages: 1 -->
<svg width="1493pt" height="477pt"
 viewBox="0.00 0.00 1492.50 477.00" xmlns="http://www.w3.org/2000/svg" xmlns:xlink="http://www.w3.org/1999/xlink">
<g id="graph0" class="graph" transform="scale(1 1) rotate(0) translate(4 473)">
<title>Tree</title>
<polygon fill="white" stroke="none" points="-4,4 -4,-473 1488.5,-473 1488.5,4 -4,4"/>
<!-- 0 -->
<g id="node1" class="node"><title>0</title>
<polygon fill="#e58139" fill-opacity="0.462745" stroke="black" points="938,-469 820,-469 820,-401 938,-401 938,-469"/>
<text text-anchor="middle" x="879" y="-453.8" font-family="Times New Roman,serif" font-size="14.00">Glucose &lt;= 154.5</text>
<text text-anchor="middle" x="879" y="-438.8" font-family="Times New Roman,serif" font-size="14.00">samples = 576</text>
<text text-anchor="middle" x="879" y="-423.8" font-family="Times New Roman,serif" font-size="14.00">value = [375, 201]</text>
<text text-anchor="middle" x="879" y="-408.8" font-family="Times New Roman,serif" font-size="14.00">class = 0</text>
</g>
<!-- 1 -->
<g id="node2" class="node"><title>1</title>
<polygon fill="#e58139" fill-opacity="0.658824" stroke="black" points="739,-365 621,-365 621,-297 739,-297 739,-365"/>
<text text-anchor="middle" x="680" y="-349.8" font-family="Times New Roman,serif" font-size="14.00">Glucose &lt;= 108.5</text>
<text text-anchor="middle" x="680" y="-334.8" font-family="Times New Roman,serif" font-size="14.00">samples = 483</text>
<text text-anchor="middle" x="680" y="-319.8" font-family="Times New Roman,serif" font-size="14.00">value = [360, 123]</text>
<text text-anchor="middle" x="680" y="-304.8" font-family="Times New Roman,serif" font-size="14.00">class = 0</text>
</g>
<!-- 0&#45;&gt;1 -->
<g id="edge1" class="edge"><title>0&#45;&gt;1</title>
<path fill="none" stroke="black" d="M819.832,-403.673C797.378,-392.164 771.626,-378.964 748.39,-367.054"/>
<polygon fill="black" stroke="black" points="749.779,-363.833 739.283,-362.386 746.586,-370.063 749.779,-363.833"/>
<text text-anchor="middle" x="746.952" y="-382.481" font-family="Times New Roman,serif" font-size="14.00">True</text>
</g>
<!-- 16 -->
<g id="node17" class="node"><title>16</title>
<polygon fill="#399de5" fill-opacity="0.807843" stroke="black" points="1161,-365 1057,-365 1057,-297 1161,-297 1161,-365"/>
<text text-anchor="middle" x="1109" y="-349.8" font-family="Times New Roman,serif" font-size="14.00">Age &lt;= 62.5</text>
<text text-anchor="middle" x="1109" y="-334.8" font-family="Times New Roman,serif" font-size="14.00">samples = 93</text>
<text text-anchor="middle" x="1109" y="-319.8" font-family="Times New Roman,serif" font-size="14.00">value = [15, 78]</text>
<text text-anchor="middle" x="1109" y="-304.8" font-family="Times New Roman,serif" font-size="14.00">class = 1</text>
</g>
<!-- 0&#45;&gt;16 -->
<g id="edge16" class="edge"><title>0&#45;&gt;16</title>
<path fill="none" stroke="black" d="M938.231,-407.732C971.688,-392.895 1013.45,-374.372 1047.31,-359.359"/>
<polygon fill="black" stroke="black" points="1048.91,-362.478 1056.63,-355.224 1046.07,-356.079 1048.91,-362.478"/>
<text text-anchor="middle" x="1047.64" y="-374.851" font-family="Times New Roman,serif" font-size="14.00">False</text>
</g>
<!-- 2 -->
<g id="node3" class="node"><title>2</title>
<polygon fill="#e58139" fill-opacity="0.870588" stroke="black" points="461.5,-261 336.5,-261 336.5,-193 461.5,-193 461.5,-261"/>
<text text-anchor="middle" x="399" y="-245.8" font-family="Times New Roman,serif" font-size="14.00">Pregnancies &lt;= 9.5</text>
<text text-anchor="middle" x="399" y="-230.8" font-family="Times New Roman,serif" font-size="14.00">samples = 218</text>
<text text-anchor="middle" x="399" y="-215.8" font-family="Times New Roman,serif" font-size="14.00">value = [193, 25]</text>
<text text-anchor="middle" x="399" y="-200.8" font-family="Times New Roman,serif" font-size="14.00">class = 0</text>
</g>
<!-- 1&#45;&gt;2 -->
<g id="edge2" class="edge"><title>1&#45;&gt;2</title>
<path fill="none" stroke="black" d="M620.75,-308.493C577.156,-292.669 517.66,-271.072 471.27,-254.233"/>
<polygon fill="black" stroke="black" points="472.174,-250.838 461.58,-250.716 469.785,-257.418 472.174,-250.838"/>
</g>
<!-- 9 -->
<g id="node10" class="node"><title>9</title>
<polygon fill="#e58139" fill-opacity="0.411765" stroke="black" points="735.5,-261 624.5,-261 624.5,-193 735.5,-193 735.5,-261"/>
<text text-anchor="middle" x="680" y="-245.8" font-family="Times New Roman,serif" font-size="14.00">BMI &lt;= 26.95</text>
<text text-anchor="middle" x="680" y="-230.8" font-family="Times New Roman,serif" font-size="14.00">samples = 265</text>
<text text-anchor="middle" x="680" y="-215.8" font-family="Times New Roman,serif" font-size="14.00">value = [167, 98]</text>
<text text-anchor="middle" x="680" y="-200.8" font-family="Times New Roman,serif" font-size="14.00">class = 0</text>
</g>
<!-- 1&#45;&gt;9 -->
<g id="edge9" class="edge"><title>1&#45;&gt;9</title>
<path fill="none" stroke="black" d="M680,-296.884C680,-288.778 680,-279.982 680,-271.472"/>
<polygon fill="black" stroke="black" points="683.5,-271.299 680,-261.299 676.5,-271.299 683.5,-271.299"/>
</g>
<!-- 3 -->
<g id="node4" class="node"><title>3</title>
<polygon fill="#e58139" fill-opacity="0.901961" stroke="black" points="272.5,-157 55.5,-157 55.5,-89 272.5,-89 272.5,-157"/>
<text text-anchor="middle" x="164" y="-141.8" font-family="Times New Roman,serif" font-size="14.00">DiabetesPedigreeFunction &lt;= 0.661</text>
<text text-anchor="middle" x="164" y="-126.8" font-family="Times New Roman,serif" font-size="14.00">samples = 204</text>
<text text-anchor="middle" x="164" y="-111.8" font-family="Times New Roman,serif" font-size="14.00">value = [186, 18]</text>
<text text-anchor="middle" x="164" y="-96.8" font-family="Times New Roman,serif" font-size="14.00">class = 0</text>
</g>
<!-- 2&#45;&gt;3 -->
<g id="edge3" class="edge"><title>2&#45;&gt;3</title>
<path fill="none" stroke="black" d="M336.333,-198.8C309.709,-187.244 278.244,-173.587 249.535,-161.126"/>
<polygon fill="black" stroke="black" points="250.887,-157.897 240.32,-157.126 248.1,-164.318 250.887,-157.897"/>
</g>
<!-- 6 -->
<g id="node7" class="node"><title>6</title>
<polygon fill="none" stroke="black" points="507.5,-157 290.5,-157 290.5,-89 507.5,-89 507.5,-157"/>
<text text-anchor="middle" x="399" y="-141.8" font-family="Times New Roman,serif" font-size="14.00">DiabetesPedigreeFunction &lt;= 0.268</text>
<text text-anchor="middle" x="399" y="-126.8" font-family="Times New Roman,serif" font-size="14.00">samples = 14</text>
<text text-anchor="middle" x="399" y="-111.8" font-family="Times New Roman,serif" font-size="14.00">value = [7, 7]</text>
<text text-anchor="middle" x="399" y="-96.8" font-family="Times New Roman,serif" font-size="14.00">class = 0</text>
</g>
<!-- 2&#45;&gt;6 -->
<g id="edge6" class="edge"><title>2&#45;&gt;6</title>
<path fill="none" stroke="black" d="M399,-192.884C399,-184.778 399,-175.982 399,-167.472"/>
<polygon fill="black" stroke="black" points="402.5,-167.299 399,-157.299 395.5,-167.299 402.5,-167.299"/>
</g>
<!-- 4 -->
<g id="node5" class="node"><title>4</title>
<polygon fill="#e58139" fill-opacity="0.941176" stroke="black" points="104,-53 0,-53 0,-0 104,-0 104,-53"/>
<text text-anchor="middle" x="52" y="-37.8" font-family="Times New Roman,serif" font-size="14.00">samples = 166</text>
<text text-anchor="middle" x="52" y="-22.8" font-family="Times New Roman,serif" font-size="14.00">value = [157, 9]</text>
<text text-anchor="middle" x="52" y="-7.8" font-family="Times New Roman,serif" font-size="14.00">class = 0</text>
</g>
<!-- 3&#45;&gt;4 -->
<g id="edge4" class="edge"><title>3&#45;&gt;4</title>
<path fill="none" stroke="black" d="M124.828,-88.9485C113.66,-79.526 101.509,-69.2731 90.3888,-59.8906"/>
<polygon fill="black" stroke="black" points="92.4028,-57.0104 82.5028,-53.2367 87.8886,-62.3605 92.4028,-57.0104"/>
</g>
<!-- 5 -->
<g id="node6" class="node"><title>5</title>
<polygon fill="#e58139" fill-opacity="0.690196" stroke="black" points="220,-53 122,-53 122,-0 220,-0 220,-53"/>
<text text-anchor="middle" x="171" y="-37.8" font-family="Times New Roman,serif" font-size="14.00">samples = 38</text>
<text text-anchor="middle" x="171" y="-22.8" font-family="Times New Roman,serif" font-size="14.00">value = [29, 9]</text>
<text text-anchor="middle" x="171" y="-7.8" font-family="Times New Roman,serif" font-size="14.00">class = 0</text>
</g>
<!-- 3&#45;&gt;5 -->
<g id="edge5" class="edge"><title>3&#45;&gt;5</title>
<path fill="none" stroke="black" d="M166.448,-88.9485C167.058,-80.7153 167.715,-71.848 168.335,-63.4814"/>
<polygon fill="black" stroke="black" points="171.845,-63.468 169.094,-53.2367 164.864,-62.9508 171.845,-63.468"/>
</g>
<!-- 7 -->
<g id="node8" class="node"><title>7</title>
<polygon fill="#e58139" stroke="black" points="335.5,-53 244.5,-53 244.5,-0 335.5,-0 335.5,-53"/>
<text text-anchor="middle" x="290" y="-37.8" font-family="Times New Roman,serif" font-size="14.00">samples = 5</text>
<text text-anchor="middle" x="290" y="-22.8" font-family="Times New Roman,serif" font-size="14.00">value = [5, 0]</text>
<text text-anchor="middle" x="290" y="-7.8" font-family="Times New Roman,serif" font-size="14.00">class = 0</text>
</g>
<!-- 6&#45;&gt;7 -->
<g id="edge7" class="edge"><title>6&#45;&gt;7</title>
<path fill="none" stroke="black" d="M360.877,-88.9485C350.009,-79.526 338.183,-69.2731 327.361,-59.8906"/>
<polygon fill="black" stroke="black" points="329.534,-57.1428 319.686,-53.2367 324.949,-62.4319 329.534,-57.1428"/>
</g>
<!-- 8 -->
<g id="node9" class="node"><title>8</title>
<polygon fill="#399de5" fill-opacity="0.713725" stroke="black" points="444.5,-53 353.5,-53 353.5,-0 444.5,-0 444.5,-53"/>
<text text-anchor="middle" x="399" y="-37.8" font-family="Times New Roman,serif" font-size="14.00">samples = 9</text>
<text text-anchor="middle" x="399" y="-22.8" font-family="Times New Roman,serif" font-size="14.00">value = [2, 7]</text>
<text text-anchor="middle" x="399" y="-7.8" font-family="Times New Roman,serif" font-size="14.00">class = 1</text>
</g>
<!-- 6&#45;&gt;8 -->
<g id="edge8" class="edge"><title>6&#45;&gt;8</title>
<path fill="none" stroke="black" d="M399,-88.9485C399,-80.7153 399,-71.848 399,-63.4814"/>
<polygon fill="black" stroke="black" points="402.5,-63.2367 399,-53.2367 395.5,-63.2367 402.5,-63.2367"/>
</g>
<!-- 10 -->
<g id="node11" class="node"><title>10</title>
<polygon fill="#e58139" fill-opacity="0.890196" stroke="black" points="668,-157 570,-157 570,-89 668,-89 668,-157"/>
<text text-anchor="middle" x="619" y="-141.8" font-family="Times New Roman,serif" font-size="14.00">BMI &lt;= 9.8</text>
<text text-anchor="middle" x="619" y="-126.8" font-family="Times New Roman,serif" font-size="14.00">samples = 51</text>
<text text-anchor="middle" x="619" y="-111.8" font-family="Times New Roman,serif" font-size="14.00">value = [46, 5]</text>
<text text-anchor="middle" x="619" y="-96.8" font-family="Times New Roman,serif" font-size="14.00">class = 0</text>
</g>
<!-- 9&#45;&gt;10 -->
<g id="edge10" class="edge"><title>9&#45;&gt;10</title>
<path fill="none" stroke="black" d="M660.195,-192.884C655.081,-184.332 649.508,-175.013 644.161,-166.072"/>
<polygon fill="black" stroke="black" points="647.051,-164.085 638.914,-157.299 641.043,-167.678 647.051,-164.085"/>
</g>
<!-- 13 -->
<g id="node14" class="node"><title>13</title>
<polygon fill="#e58139" fill-opacity="0.231373" stroke="black" points="797.5,-157 686.5,-157 686.5,-89 797.5,-89 797.5,-157"/>
<text text-anchor="middle" x="742" y="-141.8" font-family="Times New Roman,serif" font-size="14.00">Age &lt;= 28.5</text>
<text text-anchor="middle" x="742" y="-126.8" font-family="Times New Roman,serif" font-size="14.00">samples = 214</text>
<text text-anchor="middle" x="742" y="-111.8" font-family="Times New Roman,serif" font-size="14.00">value = [121, 93]</text>
<text text-anchor="middle" x="742" y="-96.8" font-family="Times New Roman,serif" font-size="14.00">class = 0</text>
</g>
<!-- 9&#45;&gt;13 -->
<g id="edge13" class="edge"><title>9&#45;&gt;13</title>
<path fill="none" stroke="black" d="M700.13,-192.884C705.327,-184.332 710.992,-175.013 716.427,-166.072"/>
<polygon fill="black" stroke="black" points="719.556,-167.663 721.759,-157.299 713.574,-164.027 719.556,-167.663"/>
</g>
<!-- 11 -->
<g id="node12" class="node"><title>11</title>
<polygon fill="#e58139" fill-opacity="0.333333" stroke="black" points="553.5,-53 462.5,-53 462.5,-0 553.5,-0 553.5,-53"/>
<text text-anchor="middle" x="508" y="-37.8" font-family="Times New Roman,serif" font-size="14.00">samples = 5</text>
<text text-anchor="middle" x="508" y="-22.8" font-family="Times New Roman,serif" font-size="14.00">value = [3, 2]</text>
<text text-anchor="middle" x="508" y="-7.8" font-family="Times New Roman,serif" font-size="14.00">class = 0</text>
</g>
<!-- 10&#45;&gt;11 -->
<g id="edge11" class="edge"><title>10&#45;&gt;11</title>
<path fill="none" stroke="black" d="M580.178,-88.9485C569.11,-79.526 557.067,-69.2731 546.046,-59.8906"/>
<polygon fill="black" stroke="black" points="548.114,-57.0542 538.23,-53.2367 543.576,-62.3842 548.114,-57.0542"/>
</g>
<!-- 12 -->
<g id="node13" class="node"><title>12</title>
<polygon fill="#e58139" fill-opacity="0.929412" stroke="black" points="670,-53 572,-53 572,-0 670,-0 670,-53"/>
<text text-anchor="middle" x="621" y="-37.8" font-family="Times New Roman,serif" font-size="14.00">samples = 46</text>
<text text-anchor="middle" x="621" y="-22.8" font-family="Times New Roman,serif" font-size="14.00">value = [43, 3]</text>
<text text-anchor="middle" x="621" y="-7.8" font-family="Times New Roman,serif" font-size="14.00">class = 0</text>
</g>
<!-- 10&#45;&gt;12 -->
<g id="edge12" class="edge"><title>10&#45;&gt;12</title>
<path fill="none" stroke="black" d="M619.7,-88.9485C619.874,-80.7153 620.061,-71.848 620.238,-63.4814"/>
<polygon fill="black" stroke="black" points="623.743,-63.3086 620.455,-53.2367 616.744,-63.1604 623.743,-63.3086"/>
</g>
<!-- 14 -->
<g id="node15" class="node"><title>14</title>
<polygon fill="#e58139" fill-opacity="0.615686" stroke="black" points="792,-53 688,-53 688,-0 792,-0 792,-53"/>
<text text-anchor="middle" x="740" y="-37.8" font-family="Times New Roman,serif" font-size="14.00">samples = 90</text>
<text text-anchor="middle" x="740" y="-22.8" font-family="Times New Roman,serif" font-size="14.00">value = [65, 25]</text>
<text text-anchor="middle" x="740" y="-7.8" font-family="Times New Roman,serif" font-size="14.00">class = 0</text>
</g>
<!-- 13&#45;&gt;14 -->
<g id="edge14" class="edge"><title>13&#45;&gt;14</title>
<path fill="none" stroke="black" d="M741.3,-88.9485C741.126,-80.7153 740.939,-71.848 740.762,-63.4814"/>
<polygon fill="black" stroke="black" points="744.256,-63.1604 740.545,-53.2367 737.257,-63.3086 744.256,-63.1604"/>
</g>
<!-- 15 -->
<g id="node16" class="node"><title>15</title>
<polygon fill="#399de5" fill-opacity="0.176471" stroke="black" points="914,-53 810,-53 810,-0 914,-0 914,-53"/>
<text text-anchor="middle" x="862" y="-37.8" font-family="Times New Roman,serif" font-size="14.00">samples = 124</text>
<text text-anchor="middle" x="862" y="-22.8" font-family="Times New Roman,serif" font-size="14.00">value = [56, 68]</text>
<text text-anchor="middle" x="862" y="-7.8" font-family="Times New Roman,serif" font-size="14.00">class = 1</text>
</g>
<!-- 13&#45;&gt;15 -->
<g id="edge15" class="edge"><title>13&#45;&gt;15</title>
<path fill="none" stroke="black" d="M783.97,-88.9485C796.051,-79.4346 809.208,-69.074 821.216,-59.6175"/>
<polygon fill="black" stroke="black" points="823.628,-62.1734 829.318,-53.2367 819.297,-56.6739 823.628,-62.1734"/>
</g>
<!-- 17 -->
<g id="node18" class="node"><title>17</title>
<polygon fill="#399de5" fill-opacity="0.843137" stroke="black" points="1163,-261 1055,-261 1055,-193 1163,-193 1163,-261"/>
<text text-anchor="middle" x="1109" y="-245.8" font-family="Times New Roman,serif" font-size="14.00">Insulin &lt;= 542.5</text>
<text text-anchor="middle" x="1109" y="-230.8" font-family="Times New Roman,serif" font-size="14.00">samples = 89</text>
<text text-anchor="middle" x="1109" y="-215.8" font-family="Times New Roman,serif" font-size="14.00">value = [12, 77]</text>
<text text-anchor="middle" x="1109" y="-200.8" font-family="Times New Roman,serif" font-size="14.00">class = 1</text>
</g>
<!-- 16&#45;&gt;17 -->
<g id="edge17" class="edge"><title>16&#45;&gt;17</title>
<path fill="none" stroke="black" d="M1109,-296.884C1109,-288.778 1109,-279.982 1109,-271.472"/>
<polygon fill="black" stroke="black" points="1112.5,-271.299 1109,-261.299 1105.5,-271.299 1112.5,-271.299"/>
</g>
<!-- 24 -->
<g id="node25" class="node"><title>24</title>
<polygon fill="#e58139" fill-opacity="0.666667" stroke="black" points="1378.5,-261 1281.5,-261 1281.5,-193 1378.5,-193 1378.5,-261"/>
<text text-anchor="middle" x="1330" y="-245.8" font-family="Times New Roman,serif" font-size="14.00">BMI &lt;= 32.65</text>
<text text-anchor="middle" x="1330" y="-230.8" font-family="Times New Roman,serif" font-size="14.00">samples = 4</text>
<text text-anchor="middle" x="1330" y="-215.8" font-family="Times New Roman,serif" font-size="14.00">value = [3, 1]</text>
<text text-anchor="middle" x="1330" y="-200.8" font-family="Times New Roman,serif" font-size="14.00">class = 0</text>
</g>
<!-- 16&#45;&gt;24 -->
<g id="edge24" class="edge"><title>16&#45;&gt;24</title>
<path fill="none" stroke="black" d="M1161.09,-305.957C1194.34,-290.613 1237.48,-270.702 1271.84,-254.843"/>
<polygon fill="black" stroke="black" points="1273.67,-257.853 1281.28,-250.485 1270.74,-251.497 1273.67,-257.853"/>
</g>
<!-- 18 -->
<g id="node19" class="node"><title>18</title>
<polygon fill="#399de5" fill-opacity="0.866667" stroke="black" points="1123.5,-157 906.5,-157 906.5,-89 1123.5,-89 1123.5,-157"/>
<text text-anchor="middle" x="1015" y="-141.8" font-family="Times New Roman,serif" font-size="14.00">DiabetesPedigreeFunction &lt;= 0.126</text>
<text text-anchor="middle" x="1015" y="-126.8" font-family="Times New Roman,serif" font-size="14.00">samples = 86</text>
<text text-anchor="middle" x="1015" y="-111.8" font-family="Times New Roman,serif" font-size="14.00">value = [10, 76]</text>
<text text-anchor="middle" x="1015" y="-96.8" font-family="Times New Roman,serif" font-size="14.00">class = 1</text>
</g>
<!-- 17&#45;&gt;18 -->
<g id="edge18" class="edge"><title>17&#45;&gt;18</title>
<path fill="none" stroke="black" d="M1078.48,-192.884C1070.19,-183.887 1061.12,-174.041 1052.49,-164.678"/>
<polygon fill="black" stroke="black" points="1055.04,-162.281 1045.69,-157.299 1049.89,-167.025 1055.04,-162.281"/>
</g>
<!-- 21 -->
<g id="node22" class="node"><title>21</title>
<polygon fill="#e58139" fill-opacity="0.498039" stroke="black" points="1266.5,-157 1141.5,-157 1141.5,-89 1266.5,-89 1266.5,-157"/>
<text text-anchor="middle" x="1204" y="-141.8" font-family="Times New Roman,serif" font-size="14.00">Pregnancies &lt;= 2.5</text>
<text text-anchor="middle" x="1204" y="-126.8" font-family="Times New Roman,serif" font-size="14.00">samples = 3</text>
<text text-anchor="middle" x="1204" y="-111.8" font-family="Times New Roman,serif" font-size="14.00">value = [2, 1]</text>
<text text-anchor="middle" x="1204" y="-96.8" font-family="Times New Roman,serif" font-size="14.00">class = 0</text>
</g>
<!-- 17&#45;&gt;21 -->
<g id="edge21" class="edge"><title>17&#45;&gt;21</title>
<path fill="none" stroke="black" d="M1139.84,-192.884C1148.22,-183.887 1157.39,-174.041 1166.11,-164.678"/>
<polygon fill="black" stroke="black" points="1168.73,-167.003 1172.99,-157.299 1163.61,-162.232 1168.73,-167.003"/>
</g>
<!-- 19 -->
<g id="node20" class="node"><title>19</title>
<polygon fill="#e58139" stroke="black" points="1023.5,-53 932.5,-53 932.5,-0 1023.5,-0 1023.5,-53"/>
<text text-anchor="middle" x="978" y="-37.8" font-family="Times New Roman,serif" font-size="14.00">samples = 1</text>
<text text-anchor="middle" x="978" y="-22.8" font-family="Times New Roman,serif" font-size="14.00">value = [1, 0]</text>
<text text-anchor="middle" x="978" y="-7.8" font-family="Times New Roman,serif" font-size="14.00">class = 0</text>
</g>
<!-- 18&#45;&gt;19 -->
<g id="edge19" class="edge"><title>18&#45;&gt;19</title>
<path fill="none" stroke="black" d="M1002.06,-88.9485C998.728,-80.4408 995.132,-71.2562 991.761,-62.6464"/>
<polygon fill="black" stroke="black" points="994.982,-61.2723 988.077,-53.2367 988.464,-63.8245 994.982,-61.2723"/>
</g>
<!-- 20 -->
<g id="node21" class="node"><title>20</title>
<polygon fill="#399de5" fill-opacity="0.882353" stroke="black" points="1140,-53 1042,-53 1042,-0 1140,-0 1140,-53"/>
<text text-anchor="middle" x="1091" y="-37.8" font-family="Times New Roman,serif" font-size="14.00">samples = 85</text>
<text text-anchor="middle" x="1091" y="-22.8" font-family="Times New Roman,serif" font-size="14.00">value = [9, 76]</text>
<text text-anchor="middle" x="1091" y="-7.8" font-family="Times New Roman,serif" font-size="14.00">class = 1</text>
</g>
<!-- 18&#45;&gt;20 -->
<g id="edge20" class="edge"><title>18&#45;&gt;20</title>
<path fill="none" stroke="black" d="M1041.58,-88.9485C1048.79,-79.9834 1056.61,-70.2666 1063.85,-61.2629"/>
<polygon fill="black" stroke="black" points="1066.76,-63.2228 1070.3,-53.2367 1061.31,-58.8358 1066.76,-63.2228"/>
</g>
<!-- 22 -->
<g id="node23" class="node"><title>22</title>
<polygon fill="#399de5" stroke="black" points="1249.5,-53 1158.5,-53 1158.5,-0 1249.5,-0 1249.5,-53"/>
<text text-anchor="middle" x="1204" y="-37.8" font-family="Times New Roman,serif" font-size="14.00">samples = 1</text>
<text text-anchor="middle" x="1204" y="-22.8" font-family="Times New Roman,serif" font-size="14.00">value = [0, 1]</text>
<text text-anchor="middle" x="1204" y="-7.8" font-family="Times New Roman,serif" font-size="14.00">class = 1</text>
</g>
<!-- 21&#45;&gt;22 -->
<g id="edge22" class="edge"><title>21&#45;&gt;22</title>
<path fill="none" stroke="black" d="M1204,-88.9485C1204,-80.7153 1204,-71.848 1204,-63.4814"/>
<polygon fill="black" stroke="black" points="1207.5,-63.2367 1204,-53.2367 1200.5,-63.2367 1207.5,-63.2367"/>
</g>
<!-- 23 -->
<g id="node24" class="node"><title>23</title>
<polygon fill="#e58139" stroke="black" points="1358.5,-53 1267.5,-53 1267.5,-0 1358.5,-0 1358.5,-53"/>
<text text-anchor="middle" x="1313" y="-37.8" font-family="Times New Roman,serif" font-size="14.00">samples = 2</text>
<text text-anchor="middle" x="1313" y="-22.8" font-family="Times New Roman,serif" font-size="14.00">value = [2, 0]</text>
<text text-anchor="middle" x="1313" y="-7.8" font-family="Times New Roman,serif" font-size="14.00">class = 0</text>
</g>
<!-- 21&#45;&gt;23 -->
<g id="edge23" class="edge"><title>21&#45;&gt;23</title>
<path fill="none" stroke="black" d="M1242.12,-88.9485C1252.99,-79.526 1264.82,-69.2731 1275.64,-59.8906"/>
<polygon fill="black" stroke="black" points="1278.05,-62.4319 1283.31,-53.2367 1273.47,-57.1428 1278.05,-62.4319"/>
</g>
<!-- 25 -->
<g id="node26" class="node"><title>25</title>
<polygon fill="#e58139" stroke="black" points="1375.5,-149.5 1284.5,-149.5 1284.5,-96.5 1375.5,-96.5 1375.5,-149.5"/>
<text text-anchor="middle" x="1330" y="-134.3" font-family="Times New Roman,serif" font-size="14.00">samples = 3</text>
<text text-anchor="middle" x="1330" y="-119.3" font-family="Times New Roman,serif" font-size="14.00">value = [3, 0]</text>
<text text-anchor="middle" x="1330" y="-104.3" font-family="Times New Roman,serif" font-size="14.00">class = 0</text>
</g>
<!-- 24&#45;&gt;25 -->
<g id="edge25" class="edge"><title>24&#45;&gt;25</title>
<path fill="none" stroke="black" d="M1330,-192.884C1330,-182.326 1330,-170.597 1330,-159.854"/>
<polygon fill="black" stroke="black" points="1333.5,-159.52 1330,-149.52 1326.5,-159.52 1333.5,-159.52"/>
</g>
<!-- 26 -->
<g id="node27" class="node"><title>26</title>
<polygon fill="#399de5" stroke="black" points="1484.5,-149.5 1393.5,-149.5 1393.5,-96.5 1484.5,-96.5 1484.5,-149.5"/>
<text text-anchor="middle" x="1439" y="-134.3" font-family="Times New Roman,serif" font-size="14.00">samples = 1</text>
<text text-anchor="middle" x="1439" y="-119.3" font-family="Times New Roman,serif" font-size="14.00">value = [0, 1]</text>
<text text-anchor="middle" x="1439" y="-104.3" font-family="Times New Roman,serif" font-size="14.00">class = 1</text>
</g>
<!-- 24&#45;&gt;26 -->
<g id="edge26" class="edge"><title>24&#45;&gt;26</title>
<path fill="none" stroke="black" d="M1365.39,-192.884C1377.85,-181.226 1391.83,-168.141 1404.24,-156.532"/>
<polygon fill="black" stroke="black" points="1406.82,-158.908 1411.73,-149.52 1402.04,-153.797 1406.82,-158.908"/>
</g>
</g>
</svg>